# Blender v3.6.0 OBJ File: ''
# www.blender.org
mtllib snowball.mtl
o SnowballModel_Scene
v -3.908469 -4.104383 0.395276
v -2.908633 -3.304146 3.452037
v 0.046090 -4.065186 4.123210
v 0.015472 -5.546822 0.415190
v 0.035885 -3.906618 -4.106746
v -3.160314 -3.262120 -3.259096
v 3.955304 -3.902192 0.429759
v 3.260422 -3.214716 3.530435
v 3.345644 -3.059395 -3.289972
v -3.859943 0.139049 4.061885
v 0.056016 0.155862 5.369372
v 0.030254 4.274195 4.059626
v -2.968611 3.460857 3.400236
v -3.948805 3.984341 0.437163
v 4.089626 0.146857 4.115191
v 3.238184 3.458155 3.478444
v 3.959867 4.098554 0.402948
v 0.053099 5.546707 0.415176
v 0.067528 4.014947 -4.060957
v -5.569180 0.049091 0.471105
v -3.924088 0.082773 -4.036815
v -3.151016 3.271075 -3.148719
v 5.571373 0.153341 0.412505
v 4.115564 0.148153 -4.096677
v 3.362601 3.263063 -3.286915
v 0.053545 0.155353 -5.686973
vt 0.012180 0.184750
vt 0.179027 0.348742
vt 0.037872 0.327734
vt 0.176978 0.184073
vt 0.180632 0.013989
vt 0.039954 0.037293
vt 0.343533 0.185844
vt 0.318560 0.324757
vt 0.321609 0.044373
vt 0.522274 0.077137
vt 0.354096 0.243894
vt 0.383643 0.104530
vt 0.523948 0.239320
vt 0.524383 0.388471
vt 0.380424 0.392787
vt 0.370777 0.532016
vt 0.224747 0.367509
vt 0.688754 0.241164
vt 0.659858 0.101818
vt 0.665308 0.393888
vt 0.674132 0.534901
vt 0.822249 0.368842
vt 0.523652 0.534065
vt 0.523838 0.686310
vt 0.220085 0.532404
vt 0.049310 0.537364
vt 0.080761 0.393467
vt 0.228727 0.704283
vt 0.083328 0.684414
vt 0.381218 0.675392
vt 0.353111 0.825756
vt 0.825837 0.535311
vt 0.990920 0.533878
vt 0.965195 0.394052
vt 0.822641 0.704376
vt 0.964939 0.676303
vt 0.667106 0.678205
vt 0.691141 0.828942
vt 0.521368 0.830386
vt 0.519295 0.992473
vt 0.378108 0.970014
vt 0.660934 0.967927
vn -0.7013 -0.7121 0.0333
vn 0.0000 -0.6850 0.7285
vn -0.5423 -0.5564 0.6296
vn 0.0130 -0.9998 0.0172
vn 0.0082 -0.7125 -0.7017
vn -0.5839 -0.5868 -0.5611
vn 0.7093 -0.7046 0.0216
vn 0.5665 -0.5542 0.6099
vn 0.6010 -0.5812 -0.5486
vn -0.6790 0.0077 0.7341
vn -0.0134 0.0101 0.9999
vn -0.0132 0.7073 0.7068
vn -0.5486 0.5773 0.6048
vn -0.7113 0.7025 0.0238
vn 0.6938 0.0074 0.7201
vn 0.5563 0.5748 0.6002
vn 0.6962 0.7176 0.0169
vn -0.0091 1.0000 0.0036
vn -0.0116 0.7264 -0.6872
vn -0.9988 0.0020 0.0483
vn -0.7205 0.0115 -0.6933
vn -0.5888 0.6002 -0.5413
vn 0.9996 0.0045 0.0292
vn 0.7271 0.0056 -0.6865
vn 0.5890 0.5971 -0.5445
vn -0.0093 0.0147 -0.9998
usemtl Snowball
s 1
f 1/1/1 3/2/2 2/3/3
f 1/1/1 4/4/4 3/2/2
f 5/5/5 4/4/4 1/1/1
f 5/5/5 1/1/1 6/6/6
f 3/2/2 4/4/4 7/7/7
f 7/7/7 4/4/4 5/5/5
f 3/2/2 7/7/7 8/8/8
f 7/7/7 5/5/5 9/9/9
f 3/10/2 10/11/10 2/12/3
f 3/10/2 11/13/11 10/11/10
f 10/11/10 11/13/11 12/14/12
f 10/11/10 12/14/12 13/15/13
f 12/14/12 14/16/14 13/15/13
f 14/16/14 10/17/10 13/15/13
f 15/18/15 11/13/11 3/10/2
f 12/14/12 11/13/11 15/18/15
f 15/18/15 3/10/2 8/19/8
f 12/14/12 15/18/15 16/20/16
f 17/21/17 12/14/12 16/20/16
f 15/22/15 17/21/17 16/20/16
f 12/14/12 18/23/18 14/16/14
f 17/21/17 18/23/18 12/14/12
f 14/16/14 18/23/18 19/24/19
f 19/24/19 18/23/18 17/21/17
f 14/16/14 20/25/20 10/17/10
f 10/17/10 20/25/20 1/26/1
f 10/17/10 1/26/1 2/27/3
f 1/26/1 20/25/20 21/28/21
f 21/28/21 20/25/20 14/16/14
f 1/26/1 21/28/21 6/29/6
f 21/28/21 14/16/14 22/30/22
f 14/16/14 19/24/19 22/30/22
f 19/24/19 21/31/21 22/30/22
f 15/22/15 23/32/23 17/21/17
f 7/33/7 23/32/23 15/22/15
f 7/33/7 15/22/15 8/34/8
f 24/35/24 23/32/23 7/33/7
f 17/21/17 23/32/23 24/35/24
f 24/35/24 7/33/7 9/36/9
f 17/21/17 24/35/24 25/37/25
f 19/24/19 17/21/17 25/37/25
f 24/38/24 19/24/19 25/37/25
f 19/24/19 26/39/26 21/31/21
f 24/38/24 26/39/26 19/24/19
f 21/31/21 26/39/26 5/40/5
f 5/40/5 26/39/26 24/38/24
f 21/31/21 5/40/5 6/41/6
f 5/40/5 24/38/24 9/42/9
